/* XPM */
static char *_e2a8cff631946f2d825c58ce7d3b878vCpE3VKyGMIRUwkq[] = {
/* columns rows colors chars-per-pixel */
"64 64 196 2 ",
"   c None",
".  c black",
"X  c #00000C",
"o  c #00000D",
"O  c #00000F",
"+  c #000010",
"@  c #000011",
"#  c #00002A",
"$  c #00002B",
"%  c #000031",
"&  c #000036",
"*  c #000037",
"=  c #000038",
"-  c #010038",
";  c #010138",
":  c #010238",
">  c #010239",
",  c #02073A",
"<  c #020B3B",
"1  c #020C3B",
"2  c #03103C",
"3  c #03143D",
"4  c #04143D",
"5  c #061F42",
"6  c #072143",
"7  c #072243",
"8  c #072344",
"9  c #082444",
"0  c #082545",
"q  c #082645",
"w  c #082646",
"e  c #092746",
"r  c #092847",
"t  c #0E334D",
"y  c #0E334E",
"u  c #15445A",
"i  c #0E4161",
"p  c #0D4362",
"a  c #0E4362",
"s  c #0D4462",
"d  c #0D4562",
"f  c #0D4563",
"g  c #0E4563",
"h  c #0D4663",
"j  c #0C4763",
"k  c #0D4763",
"l  c #0E4564",
"z  c #0D4664",
"x  c #0C4764",
"c  c #0D4764",
"v  c #0D4665",
"b  c #0D4765",
"n  c #0E4764",
"m  c #0D4864",
"M  c #0D4865",
"N  c #0D4965",
"B  c #0D4967",
"V  c #0E4867",
"C  c #0E4967",
"Z  c #0D4A66",
"A  c #0E4869",
"S  c #0E4969",
"D  c #0E496A",
"F  c #0E4A6A",
"G  c #0E4B6B",
"H  c #0C4F69",
"J  c #0F4B6C",
"K  c #0F4C6C",
"L  c #0E4D6D",
"P  c #0F4D6E",
"I  c #02566C",
"U  c #0C506B",
"Y  c #0C526B",
"T  c #0C526C",
"R  c #0B556D",
"E  c #0B576E",
"W  c #0C546C",
"Q  c #035A6F",
"!  c #045B70",
"~  c #055E72",
"^  c #055E73",
"/  c #055F73",
"(  c #065F73",
")  c #055F74",
"_  c #0A5B71",
"`  c #0A5B72",
"'  c #085E73",
"]  c #085F73",
"[  c #095F74",
"{  c #056275",
"}  c #076376",
"|  c #066377",
" . c #056477",
".. c #096075",
"X. c #096175",
"o. c #096176",
"O. c #096276",
"+. c #096376",
"@. c #066578",
"#. c #076578",
"$. c #056679",
"%. c #076679",
"&. c #086679",
"*. c #07687A",
"=. c #086C7E",
"-. c #256B7B",
";. c #066E80",
":. c #0B7082",
">. c #0B7182",
",. c #0F7687",
"<. c #0F7787",
"1. c #0B7788",
"2. c #0F7E8D",
"3. c #0D7F8F",
"4. c #0F7E8E",
"5. c #277181",
"6. c #287282",
"7. c #287382",
"8. c #2A7987",
"9. c #2B7988",
"0. c #2B7A88",
"q. c #2B7B8A",
"w. c #2C7B8A",
"e. c #2C7D8B",
"r. c #2C7E8C",
"t. c #118291",
"y. c #2D8290",
"u. c #2E8290",
"i. c #2F8290",
"p. c #2F8391",
"a. c #308A97",
"s. c #0D95A2",
"d. c #0E95A2",
"f. c #0B9EAA",
"g. c #1294A1",
"h. c #1297A4",
"j. c #1992A0",
"k. c #1398A5",
"l. c #139AA7",
"z. c #1698A5",
"x. c #1699A5",
"c. c #1599A6",
"v. c #1699A6",
"b. c #149AA7",
"n. c #159BA7",
"m. c #1B99A6",
"M. c #189BA8",
"N. c #189DAA",
"B. c #1B9DAA",
"V. c #3598A5",
"C. c #3599A5",
"Z. c #0FA1AD",
"A. c #10A1AD",
"S. c #24A3B0",
"D. c #25A3B0",
"F. c #27A5B2",
"G. c #29B4C0",
"H. c #2CB6C2",
"J. c #2DB6C2",
"K. c #2DB7C3",
"L. c #2EB8C4",
"P. c #30B8C3",
"I. c #30B8C4",
"U. c #33BCC7",
"Y. c #35BEC9",
"T. c #36BFCA",
"R. c #3FBCC8",
"E. c #40BCC8",
"W. c #41BECA",
"Q. c #43C2CE",
"!. c #48C0CC",
"~. c #49C0CD",
"^. c #4BC5D2",
"/. c #4BC6D2",
"(. c #41C8D4",
"). c #46CBD7",
"_. c #47CCD8",
"`. c #46CDD9",
"'. c #46CED9",
"]. c #48CDD9",
"[. c #48CEDA",
"{. c #4DCCD8",
"}. c #48D0DC",
"|. c #50D1DD",
" X c #4BD5E1",
".X c #4CD4E0",
"XX c #4CD5E0",
"oX c #4CD5E1",
"OX c #4DD6E2",
"+X c #4CD7E3",
"@X c #4CD8E3",
"#X c #4DD9E5",
"$X c #52D9E5",
"%X c #53D9E5",
"&X c #52DBE7",
"*X c #53DDE9",
/* pixels */
"                                                                                                                                ",
"                                                                                                                                ",
"                                                                                                                                ",
"                                                                                                                                ",
"                                                                                                                                ",
"                                                                                                                                ",
"                                                                                                                                ",
"                                                                                                                                ",
"                                                                                                                                ",
"                                                        c j c m j j j c                                                         ",
"                                                  m   c A A A A A A A H f   f                                                   ",
"                                                f K A W E E E E _ W _ W T A K c                                                 ",
"                                          c K A T E W ' #.| | | | | O.#.( W W T H K c                                           ",
"                                        c m Y Y .. .| <.t.3.3.3.3.3.2.t.<.| #.' T H c f                                         ",
"                                    m K T H +. .<.2.1.z.L.Y.Y.Y.Y.T.T.I.c.1.2.<.#.+.H T P m                                     ",
"                                  m A A O.#.+.=.M.J.U.J.E.!.!.!.W.~.~.E.I.I.L.N.=.| &.+.A m m                                   ",
"                                c A m +.#.:.;.F.H.W.^.{.u.. @ o o o . u.{.^.W.H.F.;.>.#.+.m A c                                 ",
"                              c m m +.#.#.S.G.Q.|.r.. @ - r 9 q q q r - @ . r.|.Q.G.S.#.&.+.j A m                               ",
"                            c A m O.#.#.N.`.$Xq.. < w 9 q 9 q 9 q q q 9 q w < . q.$X].B.| #.O.c A c                             ",
"                            c c O.&.| M.].$Xq.$ w q w w q q 9 q w 9 9 q q q w w # q.$X].c.| #.+.m c                             ",
"                          c c [ &.( b._.$Xw.% q w 9 w 9 w 9 w 9 9 w 9 w w 9 w 9 q % q.$X_.b.( #.+.c c                           ",
"                        c c i +.^ h._.*Xr.- q q 9 w 9 w 9 w 9 w w 9 w 9 9 w 9 w q q & r.*X_.h.^ [ i c c                         ",
"                        c c [ #.! s..Xu.4 9 q 9 w 9 w 9 w 9 w 9 9 w 9 w w 9 q 9 q 9 q 4 u. Xs.! &.[ c c                         ",
"                        c a +.! g.[.u.8 8 q 9 q 9 w 9 w 9 w 9 w w 9 w 9 9 q 9 q 9 q q 8 8 u.[.g.! +.i c                         ",
"                      c f [ ( m.Z.#Xq.- w 9 w 9 w 9 w 9 w 9 w 9 9 w 9 w 9 w 9 w 9 w 9 w - w.+XZ.m.^ ' f c                       ",
"                      c a +.( b.`.a.y 8 9 w 9 w 9 w 9 w 9 w 9 w w 9 w 9 w 9 w 9 w 9 w 9 8 y a._.c.^ +.f c                       ",
"                      c i +.I h.OX5.- 0 w 9 w 9 w 9 w 9 w 9 w 9 9 w 9 w 9 w 9 w 9 w 9 w q - 7.OXc.I +.i c                       ",
"                    m f ` ( j.f.#Xq., 0 9 w 9 w 9 w 9 w 9 w 9 w w 9 w 9 w 9 w 9 w 9 w 9 9 , q.#Xf.j.^ ` f m                     ",
"                    c f +.^ N.(.V.u 5 9 q 9 w 9 w 9 w 9 w 9 w 9 9 w 9 w 9 w 9 w 9 w 9 w q 5 u V.(.N.^ +.c c                     ",
"                    c f +.^ b.OX-.& q q 9 q 9 w 9 w 9 w 9 w 9 w w 9 w 9 w 9 w 9 w 9 w 9 q q & -.OXl.^ +.i c                     ",
"                    c f +.^ c..X5.2 q 9 q 9 q 9 w 9 w 9 w 9 w 9 9 w 9 w 9 w 9 w 9 w 9 q 9 q 4 5..Xl.^ +.c c                     ",
"                    c f +.^ l..X5.2 q q 9 q 9 w 9 w 9 w 9 w 9 w w 9 w 9 w 9 w 9 w 9 w 9 q 9 1 5..Xc.^ +.c c                     ",
"                    c c +.( b..X7.4 w 9 w 9 w 9 w 9 w 9 w 9 w 9 9 w 9 w 9 w 9 w 9 w 9 w 9 w 2 5.OXb.( +.f c                     ",
"                    c a [ ( b..X5.1 9 w 9 w 9 w 9 w 9 w 9 w 9 w w 9 w 9 w 9 w 9 w 9 w 9 w 9 2 5..Xl.^ +.f c                     ",
"                    c c O.( l.OX-.- q 9 w 9 w 9 w 9 w 9 w 9 w 9 9 w 9 w 9 w 9 w 9 w 9 w 9 q - -.OXl.^ [ f c                     ",
"                    c a | ^ N.(.V.u 5 w 9 w 9 w 9 w 9 w 9 w 9 w w 9 w 9 w 9 w 9 w 9 w 9 w 5 u V.(.N.( O.c c                     ",
"                    m c ` ( j.f.#Xq., 9 w 9 w 9 w 9 w 9 w 9 w 9 9 w 9 w 9 w 9 w 9 w 9 w q < q.#Xf.j.( ` i m                     ",
"                      c i +.I h.OX5.- q 9 w 9 w 9 w 9 w 9 w 9 w w 9 w 9 w 9 w 9 w 9 w 9 q & 5.OXh.I +.i c                       ",
"                      c c +.( c.`.a.y 8 w 9 w 9 w 9 w 9 w 9 w 9 9 w 9 w 9 w 9 w 9 q 9 q 6 y a.`.b.^ +.c c                       ",
"                      c i [ ( m.Z.OXq.- 9 w 9 w 9 w 9 w 9 w 9 w w 9 w 9 w 9 w 9 q 9 q q & w. XZ.M.( [ i c                       ",
"                        c i +.! g.}.u.6 8 0 0 0 w 9 w 9 w 9 w 9 9 w 9 w 9 w 9 w 9 w 9 9 6 u.}.g.Q [ i c                         ",
"                        c c [ &.^ s. Xu.3 0 0 0 9 w 9 w 9 w 9 w w 9 w 9 w 9 w 9 w 9 5 5 u.OXs.! &.+.c c                         ",
"                        f m f [ ^ g.).*Xr.& 0 0 w 9 q 9 w 9 w 9 9 w 9 w 9 w 9 q 9 q - r.*X).l.( [ i m c                         ",
"                          m c +.+.| c.`.&Xq.% 0 9 w 9 q 9 w 9 w w 9 w 9 q 9 q q q % q.&X).c.^ &.+.c c                           ",
"                            c m +.&.| b.].%Xq.# q q q q q 9 q q 9 w q q 9 q q q $ q.$X].N.| &.O.c c                             ",
"                            c A f +.&.#.N.].%X0.. 1 q q 9 q 9 q w 9 q q q w < . 9.$X`.N.| #.O.m A c                             ",
"                              c m m +.#.#.D.F.).|.r.. @ - w q q 9 q w - @ . r.|.Q.G.F.#. .+.m m c                               ",
"                                c A m +. .1.;.F.J.E.^.{.u.. o o o o . u.{.^.E.K.F.=.:. .+.m A f                                 ",
"                                  m m A +.*.| =.m.H.Y.P.E.!.!.!.!.!.!.E.I.U.K.M.=.| &.+.A m m                                   ",
"                                    c P H Y | #.1.2.1.z.L.Y.Y.Y.Y.Y.T.J.c.1.2.<.#.+.H T P c                                     ",
"                                        f m H T ' | | <.t.3.3.3.t.3.3.t.<.|  .' T H m c                                         ",
"                                          c K J Y E Y '  .| |  .| | |  .' Y E T A K m                                           ",
"                                                f K A T E E E E E E E E T A J f                                                 ",
"                                                  f   f H A A A A A A H c   c                                                   ",
"                                                        c c c c j c c c                                                         ",
"                                                                                                                                ",
"                                                                                                                                ",
"                                                                                                                                ",
"                                                                                                                                ",
"                                                                                                                                ",
"                                                                                                                                ",
"                                                                                                                                ",
"                                                                                                                                ",
"                                                                                                                                "
};
