/* XPM */
static char *f8f78ddcb2974ce4ef82f3a0318a10b5Amz8WDVl2MYNwI2d[] = {
/* columns rows colors chars-per-pixel */
"64 64 232 2 ",
"   c None",
".  c black",
"X  c #020200",
"o  c #0B0B07",
"O  c #0B0B08",
"+  c #0F0F0B",
"@  c #180000",
"#  c #12120E",
"$  c #001519",
"%  c #131310",
"&  c #141210",
"*  c #1A1A18",
"=  c #1D1D1B",
"-  c #1D1D1C",
";  c #1F1F1E",
":  c #21211F",
">  c #3D2513",
",  c #001C27",
"<  c #002027",
"1  c #072429",
"2  c #17272B",
"3  c #15282C",
"4  c #262625",
"5  c #272726",
"6  c #282827",
"7  c #222B2C",
"8  c #2A2A29",
"9  c #2B2B29",
"0  c #2B2B2A",
"q  c #2B2C2B",
"w  c #2C2C2B",
"e  c #282D2D",
"r  c #2D2D2C",
"t  c #2C2D2D",
"y  c #2E2E2C",
"u  c #2E2E2D",
"i  c #2F2E2D",
"p  c #2C2E2E",
"a  c #2F2F2E",
"s  c #2F2F2F",
"d  c #30302E",
"f  c #30302F",
"g  c #33312E",
"h  c #313130",
"j  c #313131",
"k  c #323230",
"l  c #323231",
"z  c #333331",
"x  c gray20",
"c  c #343433",
"v  c gray21",
"b  c #373737",
"n  c #383837",
"m  c #393938",
"M  c #393939",
"N  c #3A3A39",
"B  c #3A3A3A",
"V  c #3B3B3A",
"C  c #3C3C3B",
"Z  c #3B3C3C",
"A  c #3C3C3C",
"S  c #3D3D3C",
"D  c #3E3E3D",
"F  c #3E3E3E",
"G  c #3F3F3E",
"H  c #3F3F3F",
"J  c #49290B",
"K  c #422917",
"L  c #533F32",
"P  c #40403F",
"I  c #4C413C",
"U  c #4D423C",
"Y  c #594336",
"T  c #58453B",
"R  c #674125",
"E  c #764B2D",
"W  c #604536",
"Q  c #674B3A",
"!  c #624B3F",
"~  c #6E4F3D",
"^  c #704D36",
"/  c #393F41",
"(  c gray25",
")  c #414141",
"_  c #424241",
"`  c gray26",
"'  c #434342",
"]  c #444443",
"[  c #444444",
"{  c #454544",
"}  c gray27",
"|  c #464645",
" . c #464646",
".. c #474746",
"X. c #414749",
"o. c #494949",
"O. c #4A4A49",
"+. c #4B4B4A",
"@. c gray30",
"#. c #4E4E4E",
"$. c #535353",
"%. c #535455",
"&. c #555555",
"*. c gray34",
"=. c #54595A",
"-. c #585858",
";. c #5B5B5B",
":. c gray36",
">. c #5D5D5C",
",. c gray37",
"<. c #5F5F5F",
"1. c #705445",
"2. c #5D6061",
"3. c #606060",
"4. c #606161",
"5. c gray38",
"6. c #626261",
"7. c #626262",
"8. c #676260",
"9. c #646464",
"0. c #656565",
"q. c #676766",
"w. c #676767",
"e. c #636A6C",
"r. c #686868",
"t. c #6A6A69",
"y. c #6A6A6A",
"u. c #6B6B6A",
"i. c gray42",
"p. c #6C6C6C",
"a. c #6D6D6C",
"s. c #6D6D6D",
"d. c gray43",
"f. c #6F6F6F",
"g. c #70706F",
"h. c #74716F",
"j. c #676F72",
"k. c gray44",
"l. c #717170",
"z. c #727272",
"x. c gray45",
"c. c #757573",
"v. c #707475",
"b. c #747474",
"n. c #767675",
"m. c #777777",
"M. c gray47",
"N. c #797978",
"B. c #797979",
"V. c #7B7B7A",
"C. c #7B7B7B",
"Z. c #7E7E7E",
"A. c #7F7F7E",
"S. c gray50",
"D. c #80573C",
"F. c #98633F",
"G. c #8A5D42",
"H. c #986543",
"J. c #96684B",
"K. c #9F6F53",
"L. c #94725F",
"P. c #866E61",
"I. c #927669",
"U. c #94796C",
"Y. c #847D7A",
"T. c #807D7C",
"R. c #A47C66",
"E. c #80807F",
"W. c #B08E7D",
"Q. c #818181",
"!. c gray51",
"~. c #838383",
"^. c #868686",
"/. c #8C8481",
"(. c #888888",
"). c #898989",
"_. c gray55",
"`. c #8D8D8D",
"'. c #8E8E8D",
"]. c #8E8E8E",
"[. c gray56",
"{. c #8F9091",
"}. c #909090",
"|. c gray57",
" X c #929292",
".X c #939392",
"XX c #939393",
"oX c #959190",
"OX c #929394",
"+X c gray58",
"@X c gray59",
"#X c #959798",
"$X c #979899",
"%X c #989898",
"&X c #9A9A9B",
"*X c #9B9B9B",
"=X c #9A9D9F",
"-X c gray61",
";X c #9D9D9D",
":X c #9C9E9F",
">X c gray62",
",X c #9F9F9F",
"<X c #A39F9E",
"1X c #A0A0A0",
"2X c gray63",
"3X c #A2A2A2",
"4X c #A3A3A2",
"5X c gray64",
"6X c #A4A4A4",
"7X c #A5A5A4",
"8X c gray65",
"9X c gray66",
"0X c #AAA9A9",
"qX c #AAAAAA",
"wX c gray67",
"eX c #ACACAC",
"rX c gray68",
"tX c #AEAEAE",
"yX c #AFAFAF",
"uX c #B3AFAD",
"iX c gray69",
"pX c #B1B1B1",
"aX c #B2B2B2",
"sX c gray70",
"dX c #B4B4B4",
"fX c #B4B5B5",
"gX c gray71",
"hX c #B6B6B6",
"jX c #B6B9BA",
"kX c gray72",
"lX c #B9B9B9",
"zX c #BCBCBC",
/* pixels */
"                                                                                                                                ",
"                                                                                                                                ",
"                                                                                                                                ",
"                                                                                                                                ",
"                                                                                                                                ",
"                                                                                                                                ",
"                                                                                                                                ",
"                                                                                                                                ",
"                                                                                                                                ",
"                                                                                                                                ",
"                                                                                                                                ",
"                                                                                                                                ",
"                                                                                                                                ",
"                                                                                                                                ",
"                                                                                                                                ",
"                                                                                                                                ",
"                                                                                                                                ",
"                                                                                                                                ",
"                                                                                                                                ",
"                                                                                                                                ",
"                                                                                                                                ",
"                                                                                                                                ",
"                                                                                                                                ",
"                                                                                                                                ",
"                                              r .         . :         . q                                                       ",
"                                              f G V     V G V w     V H c r                                                     ",
"                                      z % . . r ~.*Xc.V _.-Xq.. . i.@X{.... . . i                                               ",
"                                      r _ +.f 8 [.dXB.V ;XrXi.. . l.uX;X..- +...z                                               ",
"                                      # B.5X~.z ;.B.+.. q.b.V . G 7.m.q.5 l.1X).r                                               ",
"                                      . S.yX|.f . . ] $.8 o ..;.&...O . * ~.yX|.w                                               ",
"                                  z * . ] s.&.. . f ).1X7.V |.%X7.. . & +.2.e.=.i       < 7 f                                   ",
"                                  5 @.7.@.. C 7.P n %XsXs.] 7XwX>.- >.2.%.U J > 6     Y ! U e                                   ",
"                                  . B.wX{.8 M.eXZ.8 S.-X>.V `.|.] :.7X$XX.R H.E . . @ G.K.1.1                                   ",
"                                  . g.1X`.V b.6XZ.z >.b.@.G s.s.b 7.1X{./ ~ R.U.s.j.h.L.J.Q ,                                   ",
"                                      ..+.] [ [ } } b s G _ b z G _ ..( A 8./.1XiXdXwXY.K                                       ",
"                                      r.Z.~.M.i.m.Q.m.f.S.~.b.l.~.S.i.f.E.{.=X>X;XrXwXv.. .                                     ",
"                                  . g.wXlXsXiXiXyXyXaXyXsXsXsXsXiXsXuXsXsXdXdX(.n l.`.2.. $ 2                                   ",
"                                  + i.@X9XeXiXiXyXyXyXyXrXrXrXrXrXrXyXrXeXdXzX>XB.|.1X+XT.P.^ Y                                 ",
"                                  w f r r.`.#X|.|.|.OX{.|.|.|.|.|.|.|.[.{.1XhXlXdXdXdXjXuXW.F.W ,                               ",
"                                    #   [ r.x.s.s.s.s.s.s.s.s.s.s.s.s.p.i.C.`.+X@X@X|.#XoXI.D.T 2                               ",
"                                          r f w r r r r r r r r r r r r r r 8 8 w 8 w 8 w r e x i                               ",
"                                                                                                                                ",
"                                                                                                                                ",
"                                                                                                                                ",
"                                                                                                                                ",
"                                                                                                                                ",
"                                                                                                                                ",
"                                                                                                                                ",
"                                                                                                                                ",
"                                                                                                                                ",
"                                                                                                                                ",
"                                                                                                                                ",
"                                                                                                                                ",
"                                                                                                                                ",
"                                                                                                                                ",
"                                                                                                                                ",
"                                                                                                                                ",
"                                                                                                                                ",
"                                                                                                                                ",
"                                                                                                                                ",
"                                                                                                                                ",
"                                                                                                                                ",
"                                                                                                                                ",
"                                                                                                                                "
};
