/* XPM */
static char *_b1625bdbddb4662884efabb409170feD9QD82NPiWy9aolv[] = {
/* columns rows colors chars-per-pixel */
"64 64 232 2 ",
"   c None",
".  c black",
"X  c #020200",
"o  c #0B0B07",
"O  c #00000D",
"+  c #0B0B08",
"@  c #0F0F0B",
"#  c #12120E",
"$  c #131310",
"%  c #141210",
"&  c #1A1A18",
"*  c #1D1D1B",
"=  c #1D1D1C",
"-  c #1F1F1E",
";  c #37200E",
":  c #21211F",
">  c #011D22",
",  c #001D27",
"<  c #002028",
"1  c #0E282C",
"2  c #16282D",
"3  c #1D292C",
"4  c #262625",
"5  c #272726",
"6  c #222A2C",
"7  c #292928",
"8  c #2A2A29",
"9  c #2B2B29",
"0  c #2B2B2A",
"q  c #2C2C2B",
"w  c #292D2D",
"e  c #2B2E2E",
"r  c #2D2D2C",
"t  c #2E2E2C",
"y  c #2E2E2D",
"u  c #2F2F2E",
"i  c #2F2F2F",
"p  c #312F2E",
"a  c #30302E",
"s  c #30302F",
"d  c #32302F",
"f  c #313130",
"g  c #313131",
"h  c #323230",
"j  c #323231",
"k  c #333331",
"l  c gray20",
"z  c #343433",
"x  c gray21",
"c  c #373737",
"v  c #383837",
"b  c #393938",
"n  c #393939",
"m  c #3A3A39",
"M  c #3A3A3A",
"N  c #3B3B3A",
"B  c #3C3C3B",
"V  c #3B3C3C",
"C  c #3C3C3C",
"Z  c #3D3D3C",
"A  c #3E3E3D",
"S  c #3E3E3E",
"D  c #3F3F3E",
"F  c #3F3F3F",
"G  c #49290B",
"H  c #573D2F",
"J  c #4B3B32",
"K  c #4C3F39",
"L  c #40403F",
"P  c #4F413A",
"I  c #4D423C",
"U  c #5C4538",
"Y  c #674125",
"T  c #6F4629",
"R  c #724727",
"E  c #7D4F2D",
"W  c #64493A",
"Q  c #6E4E3B",
"!  c #6E4F3D",
"~  c #714F3A",
"^  c #393F41",
"/  c gray25",
"(  c #414141",
")  c #424241",
"_  c gray26",
"`  c #434342",
"'  c #444443",
"]  c #444444",
"[  c #454544",
"{  c gray27",
"}  c #464645",
"|  c #464646",
" . c #474746",
".. c #414749",
"X. c #494949",
"o. c #4A4A49",
"O. c #4B4B4A",
"+. c gray30",
"@. c #4E4E4E",
"#. c #535353",
"$. c #535455",
"%. c #555555",
"&. c gray34",
"*. c #525658",
"=. c #565D5F",
"-. c #585858",
";. c #5B5B5B",
":. c gray36",
">. c #5D5D5C",
",. c gray37",
"<. c #5F5F5F",
"1. c #765F54",
"2. c #7B6255",
"3. c #5D6061",
"4. c #606060",
"5. c #606161",
"6. c gray38",
"7. c #626261",
"8. c #626262",
"9. c #676260",
"0. c #646464",
"q. c #656565",
"w. c #676766",
"e. c #676767",
"r. c #636A6C",
"t. c #686868",
"y. c #6A6A69",
"u. c #6A6A6A",
"i. c #6B6B6A",
"p. c gray42",
"a. c #6F6C6A",
"s. c #6C6C6C",
"d. c #6D6D6C",
"f. c #6D6D6D",
"g. c #6E6E6D",
"h. c gray43",
"j. c #6F6F6F",
"k. c #70706F",
"l. c #74706E",
"z. c gray44",
"x. c #717170",
"c. c #727272",
"v. c gray45",
"b. c #757573",
"n. c #747474",
"m. c #767675",
"M. c #777777",
"N. c #7A7877",
"B. c gray47",
"V. c #797978",
"C. c #797979",
"Z. c #7B7B7A",
"A. c #7B7B7B",
"S. c #7E7E7E",
"D. c #7F7F7E",
"F. c gray50",
"G. c #97623E",
"H. c #996440",
"J. c #986543",
"K. c #8F776C",
"L. c #A47C66",
"P. c #80807F",
"I. c #9B8479",
"U. c #AE8A78",
"Y. c #AE8D7B",
"T. c #818181",
"R. c gray51",
"E. c #838383",
"W. c #868686",
"Q. c #8C8481",
"!. c #898988",
"~. c #898989",
"^. c gray54",
"/. c gray55",
"(. c #8D8D8D",
"). c #8E8E8D",
"_. c #8E8E8E",
"`. c gray56",
"'. c #8C8F90",
"]. c #8F9091",
"[. c #909090",
"{. c #909191",
"}. c gray57",
"|. c #939392",
" X c #939393",
".X c gray58",
"XX c gray59",
"oX c #979899",
"OX c #989898",
"+X c #9A9A9B",
"@X c #9B9B9B",
"#X c #9A9D9F",
"$X c gray61",
"%X c #9D9D9D",
"&X c #9C9E9F",
"*X c gray62",
"=X c #9F9F9F",
"-X c #A99084",
";X c #A29F9E",
":X c #A0A0A0",
">X c #A2A2A2",
",X c #A3A3A2",
"<X c gray64",
"1X c #A4A4A4",
"2X c #A5A5A4",
"3X c gray65",
"4X c #A7A9AA",
"5X c #A7AAAB",
"6X c #A7AAAC",
"7X c gray66",
"8X c #AAAAAA",
"9X c gray67",
"0X c #AFABA9",
"qX c #ACACAC",
"wX c gray68",
"eX c #AEAEAE",
"rX c #AFAFAF",
"tX c #B1ACAA",
"yX c gray69",
"uX c #B1B1B1",
"iX c #B2B2B2",
"pX c gray70",
"aX c #B4B4B4",
"sX c gray71",
"dX c #B6B6B6",
"fX c #BBB8B6",
"gX c gray72",
"hX c #B9B9B9",
"jX c #BCB9B8",
"kX c #B9BBBC",
"lX c #BCBCBC",
"zX c gray74",
/* pixels */
"                                                                                                                                ",
"                                                                                                                                ",
"                                                                                                                                ",
"                                                                                                                                ",
"                                                                                                                                ",
"                                                                                                                                ",
"                                                                                                                                ",
"                                                                                                                                ",
"                                                                                                                                ",
"                                                                                                                                ",
"                                                                                                                                ",
"                                                                                                                                ",
"                                                                                                                                ",
"                                                                                                                                ",
"                                                                                                                                ",
"                                                                                                                                ",
"                                                                                                                                ",
"                                                                                                                                ",
"                                                                                                                                ",
"                                                                                                                                ",
"                                                                                                                                ",
"                                                                                                                                ",
"                                                                                                                                ",
"                                                                                                                                ",
"                                              r .         . :         . 8                                                       ",
"                                              s D N     N D N q     N L z r                                                     ",
"                                      k $ . . r E.@Xb.N /.$Xw.. . p.XX}.[ . . . r                                               ",
"                                      r ) O.s 8 `.aXC.N %XwXp.. . c.rX%X[ : O.[ k                                               ",
"                                      # C.<XE.k ;.C.O.. w.n.N . D 8.n.w.5 c.:X~.r                                               ",
"                                      . F.rX}.s . . ' #.8 o X.-.&. .+ . = E.wX}.8 .                                             ",
"                                  k & . ' g.%.. . s ~.:X8.N }.OX8.. . % O.3.r.*.r > , 3 p                                       ",
"                                  5 +.8.+.. B 8.L v OXpXg.' 2X9X>.= :.8.$.I G ; 8 J U K e                                       ",
"                                  . C.9X].8 C.qXP.8 S.$X>.V (. X' >.3XOX..Y J.T . R G.~ 2                                       ",
"                                  . j.2X`.n n.3XS.i <.n.@.D s.g.x 8.:X}.^ ! L.K.g.I.U.2.O                                       ",
"                                      ..X.) ] [ [ _ x i D ( l k D ) [ ^ C 9.Q.;XrXfXtXk.. . 1 e s                               ",
"                                      r.K.E.C.e.C.E.M.j.F.E.c.c.E.F.g.j.P.].#X&X%X5X5X].p.2.Q P 6                               ",
"                                  . j.9XhXpXyXyXyXyXyXyXpXpXyXpXyXpXtXpXpXaXaXW.n t..X6X0XY.H.W <                               ",
"                                  @ p.oX8XqXyXyXrXrXrXyXwXwXwXyXrXrXrXwXqXaXzX:XC.^.1XkXjX-XE H                                 ",
"                                  r k r e.(.OX}.].].].}.}.}.}.}.].}.}.`.].:XaXhXaXaXaXzXwXC..                                   ",
"                                    @   ] e.n.s.g.j.s.g.s.g.g.g.g.g.g.p.p.A.(.XXXXXX}.oXE.:.                                    ",
"                                          r r r r r r r r r r r q r r r r r 8 8 q 8 q r q                                       ",
"                                                                                                                                ",
"                                                                                                                                ",
"                                                                                                                                ",
"                                                                                                                                ",
"                                                                                                                                ",
"                                                                                                                                ",
"                                                                                                                                ",
"                                                                                                                                ",
"                                                                                                                                ",
"                                                                                                                                ",
"                                                                                                                                ",
"                                                                                                                                ",
"                                                                                                                                ",
"                                                                                                                                ",
"                                                                                                                                ",
"                                                                                                                                ",
"                                                                                                                                ",
"                                                                                                                                ",
"                                                                                                                                ",
"                                                                                                                                ",
"                                                                                                                                ",
"                                                                                                                                ",
"                                                                                                                                "
};
