/* XPM */
static char *_5bddefd86fa47cfa408596885723f3elXMrwRGlqBJEY517[] = {
/* columns rows colors chars-per-pixel */
"64 64 126 2 ",
"   c None",
".  c #000000",
"X  c #00000E",
"o  c #11110E",
"O  c #000917",
"+  c #001115",
"@  c #141412",
"#  c #191917",
"$  c #1D1D1B",
"%  c #250F00",
"&  c #3F1400",
"*  c #301B08",
"=  c #001B26",
"-  c #00222B",
";  c #0D252A",
":  c #11262B",
">  c #1C292B",
",  c #1B2E32",
"<  c #252524",
"1  c #242C2E",
"2  c #2D2D2C",
"3  c #31302F",
"4  c #333231",
"5  c #393431",
"6  c #3E3835",
"7  c #313A3C",
"8  c #3B3B3B",
"9  c #431400",
"0  c #4E3A2D",
"q  c #423B37",
"w  c #4D3B31",
"e  c #513F36",
"r  c #5E4332",
"t  c #5C473C",
"y  c #624027",
"u  c #734A2E",
"i  c #794D2D",
"p  c #624430",
"a  c #684630",
"s  c #6A4C3A",
"d  c #344246",
"f  c #3D4143",
"g  c #444444",
"h  c #474847",
"j  c #484847",
"k  c #404648",
"l  c #474848",
"z  c #4A4A4A",
"x  c #544A45",
"c  c #51514F",
"v  c #484F51",
"b  c #545454",
"n  c #585857",
"m  c #5B5C5C",
"M  c #785B4B",
"N  c #695850",
"B  c #6E615B",
"V  c #5C6062",
"C  c #636363",
"Z  c #686867",
"A  c #6D6D6D",
"S  c #70706F",
"D  c #747474",
"F  c #7B7B7B",
"G  c #8E5933",
"H  c #875B3E",
"J  c #8F5D3A",
"K  c #925F3C",
"L  c #96613D",
"P  c #8B5E41",
"I  c #805E4C",
"U  c #956445",
"Y  c #936E59",
"T  c #9E755E",
"R  c #A7775C",
"E  c #B17D5F",
"W  c #8A7368",
"Q  c #977A6C",
"!  c #8E7C74",
"~  c #847C78",
"^  c #8B827E",
"/  c #9A857C",
"(  c #AC846F",
")  c #B28165",
"_  c #A28577",
"`  c #B08F7E",
"'  c #7E8283",
"]  c #838383",
"[  c #878889",
"{  c #8C8C8C",
"}  c #8C8F91",
"|  c #8E9293",
" . c #939393",
".. c #999594",
"X. c #9C9D9C",
"o. c #A08C83",
"O. c #AF9487",
"+. c #A49995",
"@. c #A19F9E",
"#. c #B9A59C",
"$. c #9FA0A1",
"%. c #A2A2A2",
"&. c #A5A7A8",
"*. c #A7A8A9",
"=. c #ABABAB",
"-. c #B1A5A0",
";. c #B2A9A6",
":. c #B9AAA3",
">. c #B5B1AF",
",. c #ADAFB0",
"<. c #B4B4B4",
"1. c #B5B4B4",
"2. c #B5B6B6",
"3. c #B6B6B7",
"4. c #B7B7B7",
"5. c #B2B3B4",
"6. c #BAB6B4",
"7. c #BAB8B7",
"8. c gray72",
"9. c #B9B9B9",
"0. c #B8BBBC",
"q. c #BBBCBC",
"w. c #BCBCBC",
"e. c #BCBDBD",
"r. c #BEC2C4",
"t. c #C0C0C1",
/* pixels */
"                                                                                                                                ",
"                                                                                                                                ",
"                                                                                                                                ",
"                                                                                                                                ",
"                                                                                                                                ",
"                                                                                                                                ",
"                                                                                                                                ",
"                                                                                                                                ",
"                                                                                                                                ",
"                                                                                                                                ",
"                                                                                                                                ",
"                                                                                                                                ",
"                                                                                                                                ",
"                                                                                                                                ",
"                                                                                                                                ",
"                                                                                                                                ",
"                                                                                                                                ",
"                                                                                                                                ",
"                                                                                                                                ",
"                                                                                                                                ",
"                                                                                                                                ",
"                                              2 < #     @ $ 2 4     @ < 2 3                                                     ",
"                                            . 4 D { A   F { m o . C ] ] g .                                                     ",
"                                      3 3 2 . 2  .<.F 8 X.5.A . . A 5.%.h . 2 3 3                                               ",
"                                      $ S  .D 3 S { m # F ] z . 4 Z { F 3 C  .] 4 .                                             ",
"                                      . ] <...4 . < 3 8 2 < 4 g b z 2 . o ] 1. .2                                               ",
"                                    @ . b ] Z . . < F  .b 4 ]  .C $ . . g A ] F                                                 ",
"                                  2 8 j 8 o 3 j < 8 X.<.A g &.=.C . g z b g @ .                                                 ",
"                                  . D $.] $ A %.D 2 ] %.C 8  .X.z c X. .z + O . . . . X - 1 3                                   ",
"                                  . D =. .8 F ,.] 4 Z ] b g D F 8 Z *.X.z % w x n n n x t q 2                                   ",
"                                      B m k n C m g g z g g z z g c C m k a G / %.&.@._ P s ;                                   ",
"                                      b C Z b 8 b C b g m C z g N m 8 k V W ( #.e.r.8.O.L p =                                   ",
"                                  . A &.*.{ ] ' ] ] ] ] ] F F F ' ' F F ]  .;.6.w.t.2.^ 9                                       ",
"                                  . D %.@.] [  . . . . .X.%.%.%.$.$.$.X. .&.0.,.X.*.*.] d                                       ",
"                                  2 g m b g A | | | }  .=.6.8.2.5.5.2.*. .&.w. .g A  .{ F v .                                   ",
"                                  4 $ . . . B / o.o.~ F  .X.X.%.-.:.;.+.~ [ X.] A [ X.&.X.! y 0                                 ",
"                                          > I R E R M 7 f z d N T ) ) Y x , k { <.8.3.0.5.` L r =                               ",
"                                          > s P U P r O . . . & i K J u * . . D @.%.X.X...Q P t :                               ",
"                                              5 6 5 3 3 4 2     5 6 6 5       8 8 8 8 8 8 5 5 5 3                               ",
"                                              = = = > 3 3         = =           . . . . . X - 1                                 ",
"                                                                                                                                ",
"                                                                                                                                ",
"                                                                                                                                ",
"                                                                                                                                ",
"                                                                                                                                ",
"                                                                                                                                ",
"                                                                                                                                ",
"                                                                                                                                ",
"                                                                                                                                ",
"                                                                                                                                ",
"                                                                                                                                ",
"                                                                                                                                ",
"                                                                                                                                ",
"                                                                                                                                ",
"                                                                                                                                ",
"                                                                                                                                ",
"                                                                                                                                ",
"                                                                                                                                ",
"                                                                                                                                ",
"                                                                                                                                ",
"                                                                                                                                ",
"                                                                                                                                ",
"                                                                                                                                ",
"                                                                                                                                "
};
