/* XPM */
static char *f6d17584b736409ded00540ecaddc5eabR6sEXa6HxDH1KYk[] = {
/* columns rows colors chars-per-pixel */
"64 64 155 2 ",
"   c None",
".  c #010100",
"X  c #0A0A06",
"o  c #000009",
"O  c #030D0D",
"+  c #0C0D0A",
"@  c #1A0000",
"#  c #12120E",
"$  c #000212",
"%  c #091A1E",
"&  c #161614",
"*  c #181817",
"=  c #1D1D1B",
"-  c #1F211F",
";  c #21211F",
":  c #3B281C",
">  c #001E27",
",  c #001E28",
"<  c #111F21",
"1  c #002128",
"2  c #192122",
"3  c #14262B",
"4  c #1C292C",
"5  c #242524",
"6  c #292927",
"7  c #242B2D",
"8  c #2D2D2C",
"9  c #312F2E",
"0  c #30302F",
"q  c #39302B",
"w  c #2F3131",
"e  c #343433",
"r  c #3B3B3B",
"t  c #4C2700",
"y  c #402B1C",
"u  c #502F14",
"i  c #453125",
"p  c #4F3425",
"a  c #423228",
"s  c #4B392F",
"d  c #553723",
"f  c #5F3B20",
"g  c #513829",
"h  c #5E402F",
"j  c #40403F",
"k  c #5E4335",
"l  c #544238",
"z  c #674530",
"x  c #694731",
"c  c #644837",
"v  c #604738",
"b  c #734C33",
"n  c #714F3B",
"m  c #72513E",
"M  c #7D563E",
"N  c #454544",
"B  c #4E4947",
"V  c #444748",
"C  c #4C4C4B",
"Z  c #564B46",
"A  c #594940",
"S  c #534F4E",
"D  c #4E5558",
"F  c #545454",
"G  c #555A5C",
"H  c #5C5C5C",
"J  c #684E40",
"K  c #755542",
"L  c #7A5540",
"P  c #64605F",
"I  c #786053",
"U  c #5D6365",
"Y  c #636363",
"T  c #6C6765",
"R  c #676768",
"E  c #63696B",
"W  c #6C6B6B",
"Q  c #7E6D65",
"!  c #70706F",
"~  c #7E726C",
"^  c #6E6F70",
"/  c #757575",
"(  c #777877",
")  c #787877",
"_  c #767A7B",
"`  c #7B7B7B",
"'  c #805539",
"]  c #875A3D",
"[  c #905F3F",
"{  c #93603E",
"}  c #845B42",
"|  c #835F4B",
" . c #936142",
".. c #96684C",
"X. c #9D6B4D",
"o. c #926A53",
"O. c #9F6F52",
"+. c #926F5D",
"@. c #A76F4A",
"#. c #A5704E",
"$. c #A26F50",
"%. c #AA7350",
"&. c #846F65",
"*. c #907568",
"=. c #807F7E",
"-. c #A57C66",
";. c #A07D6C",
":. c #80807F",
">. c #8C827D",
",. c #A7826F",
"<. c #AC8673",
"1. c #A88C7F",
"2. c #7D8081",
"3. c #828282",
"4. c #8D8886",
"5. c #85898A",
"6. c #8B8B8B",
"7. c #988C87",
"8. c #928C89",
"9. c #97908D",
"0. c #8B8F91",
"q. c #8E9193",
"w. c #939393",
"e. c #979999",
"r. c #9B9C9C",
"t. c #A38B80",
"y. c #AA8F82",
"u. c #AE9589",
"i. c #B79685",
"p. c #B89787",
"a. c #A39F9D",
"s. c #A3A3A3",
"d. c #A1A1A1",
"f. c #A5A5A4",
"g. c #A7A7A7",
"h. c #A5A6A7",
"j. c #A0A0A0",
"k. c #A7A8A8",
"l. c #AAAAAA",
"z. c #A9A9A9",
"x. c #A8ABAC",
"c. c #ACACAC",
"v. c #AEAEAE",
"b. c #ADADAD",
"n. c #B1AFAF",
"m. c #B3B1AF",
"M. c #AEB1B2",
"N. c gray69",
"B. c #B3B3B3",
"V. c #B1B2B2",
"C. c #B4B4B4",
"Z. c #B2B2B2",
"A. c #B9B4B2",
"S. c #BCBCBC",
"D. c #B9B9B8",
/* pixels */
"                                                                                                                                ",
"                                                                                                                                ",
"                                                                                                                                ",
"                                                                                                                                ",
"                                                                                                                                ",
"                                                                                                                                ",
"                                                                                                                                ",
"                                                                                                                                ",
"                                                                                                                                ",
"                                                                                                                                ",
"                                                                                                                                ",
"                                                                                                                                ",
"                                                                                                                                ",
"                                                                                                                                ",
"                                                                                                                                ",
"                                                                                                                                ",
"                                                                                                                                ",
"                                                                                                                                ",
"                                                                                                                                ",
"                                                                                                                                ",
"                                                                                                                                ",
"                                                                                                                                ",
"                                                                                                                                ",
"                                          8 6 X .     . * 6 e     . # 6 e                                                       ",
"                                        . 6 Y 3./   H ) ` C &     / 2.H = .                                                     ",
"                                  0 = . . & ` N.r.N T c.g.H . . Y l.l.^ . . . 5 e                                               ",
"                                * e Y ` H 6 / d.6.e U r.w.C . = Y e.e.P 8 T ) H 6                                               ",
"                                  6 6.N.w.N 6 F B X 6 F C & * C H H S & F r.c.` X                                               ",
"                                . = 2.h.0.r . . j T H + 8 Y W H N . . . H e.j./ #                                               ",
"                              0 X . s H V . . . / k.e.N H d.j.Y . . . N F G D V 8       1 4 8                                   ",
"                            5 e H T C . r R F = / N.j.V P l.g.H * H T G B g t : 5     v J A e 7                                 ",
"                            . e 0.c.5.6 / l.w.r H e.6.r F e.8.V S j.f.E : ] [ f . . @ } $.| w >                                 ",
"                              e 4.z.5.r ) z.w.V C ) ! j C / / r H j.s.U i o.-.&.U U T +.X.L 8                                   ",
"                                G H F N F P H V N V V N V N N N C H H V F ~ 7.a.l.c.d.>.k u                                     ",
"                                V S H R F e V Y H N C P H N V P U s r D ^ 5.r.s.n.D.N.2.o .                                     ",
"                              e 3.s.j.4.3.` ` 3.=.` ` ` ` ) ) ` ` ) / _ 6.h.k.2.Y 5.e.Y . . >                                   ",
"                            . e 6.n.g.5.4.q.w.w.9.w.w.e.e.e.e.e.e.e.e.q.e.C.N.` N ` w.` F Z l s                                 ",
"                            * e R ) ! H / 0.w.0.0.w.r.b.C.C.B.N.M.M.k.e.e.C.S.l.d.l.m.x.s.t...b 9                               ",
"                              e = . . + P 4.9.8.4.3.w.c.N.N.n.m.A.A.n.9.5.j.N.N.N.c.c.B.N.u.$.' e >                             ",
"                                    . 2 I ;.<.<.*.P U / ` _ >.y.i.i.t.&.U / ` ` ( ` _ :.:.Q K c e 7                             ",
"                                      7 m X.%.#.} a $ + . . d [ @.@. .h $ o . X + + + X . % 3 7 8                               ",
"                                        k n L M c q < ; O     z M M z d       # - ; * .                                         ",
"                                          4 4 4 7 8 9 e 0     4 4 4 4         e 9 e 8                                           ",
"                                                                                                                                ",
"                                                                                                                                ",
"                                                                                                                                ",
"                                                                                                                                ",
"                                                                                                                                ",
"                                                                                                                                ",
"                                                                                                                                ",
"                                                                                                                                ",
"                                                                                                                                ",
"                                                                                                                                ",
"                                                                                                                                ",
"                                                                                                                                ",
"                                                                                                                                ",
"                                                                                                                                ",
"                                                                                                                                ",
"                                                                                                                                ",
"                                                                                                                                ",
"                                                                                                                                ",
"                                                                                                                                ",
"                                                                                                                                ",
"                                                                                                                                "
};
