/* XPM */
static char *_0f20659ab2c4824c8f301678df0aa1bSiK4l8XDCAEm4ygK[] = {
/* columns rows colors chars-per-pixel */
"64 64 201 2 ",
"   c None",
".  c black",
"X  c #322D23",
"o  c #5A0000",
"O  c #570000",
"+  c #4F0000",
"@  c #6B0000",
"#  c #730000",
"$  c #7B0000",
"%  c #72001A",
"&  c #482E00",
"*  c #7B2211",
"=  c #771C2B",
"-  c #7A3528",
";  c #742E33",
":  c #574500",
">  c #64521C",
",  c #5E4F20",
"<  c #744734",
"1  c #675938",
"2  c #69592A",
"3  c #7F3D45",
"4  c #794444",
"5  c #6E5D52",
"6  c #766949",
"7  c #6E6654",
"8  c #726955",
"9  c #796F59",
"0  c #786D57",
"q  c #7E7151",
"w  c #7B715C",
"e  c #6E6244",
"r  c #757066",
"t  c #830000",
"y  c #8C0000",
"u  c #930000",
"i  c #9B0000",
"p  c #890B1A",
"a  c #A20000",
"s  c #AC0000",
"d  c #A20209",
"f  c #B20000",
"g  c #BF0000",
"h  c #B6141A",
"j  c #9B2121",
"k  c #823D3D",
"l  c #A42727",
"z  c #A62929",
"x  c #A92929",
"c  c #AA2425",
"v  c #B52B2B",
"b  c #BA362F",
"n  c #C10000",
"m  c #CE0000",
"M  c #D30000",
"N  c #D0000C",
"B  c #D10413",
"V  c #D1141C",
"C  c #C30C16",
"Z  c #D21E23",
"A  c #C42F2F",
"S  c #CC2C2C",
"D  c #CA2425",
"F  c #D12427",
"G  c #D12729",
"H  c #D22E2E",
"J  c #D22F30",
"K  c #C63433",
"L  c #D23232",
"P  c #D93434",
"I  c #DB3939",
"U  c #AC433F",
"Y  c #8A3F40",
"T  c #824346",
"R  c #845C5D",
"E  c #AF4C48",
"W  c #8D6A54",
"Q  c #8F6E59",
"!  c #906E59",
"~  c #847653",
"^  c #92715C",
"/  c #876E4F",
"(  c #877D68",
")  c #977B7B",
"_  c #946A68",
"`  c #A27C6C",
"'  c #B2716A",
"]  c #D34441",
"[  c #D44845",
"{  c #D65B55",
"}  c #D65F59",
"|  c #DA5F59",
" . c #CE4B47",
".. c #D7605A",
"X. c #DC625B",
"o. c #C76259",
"O. c #DB766D",
"+. c #DC7D73",
"@. c #C2786F",
"#. c #9E8C5F",
"$. c #8C816A",
"%. c #93876D",
"&. c #978969",
"*. c #968B73",
"=. c #8D867A",
"-. c #A2926C",
";. c #AC9E7E",
":. c #A49574",
">. c #A48573",
",. c #B2A27D",
"<. c #DD8076",
"1. c #DE857B",
"2. c #B57F80",
"3. c #9C938F",
"4. c #B88A8A",
"5. c #AB9B82",
"6. c #B69C8D",
"7. c #B69C9B",
"8. c #AFA286",
"9. c #B3A484",
"0. c #BAAC8B",
"q. c #BFB18F",
"w. c #B6A698",
"e. c #ABA59B",
"r. c #B39CA0",
"t. c #BBA3A3",
"y. c #BCACAC",
"u. c #B7A8A5",
"i. c #BAB4B2",
"p. c #BDBAB4",
"a. c #BBB9B5",
"s. c #BAB2A3",
"d. c #DF8D82",
"f. c #C29A8C",
"g. c #D49B8E",
"h. c #E1958A",
"j. c #E39E91",
"k. c #C0B08E",
"l. c #CAB88E",
"z. c #C2A798",
"x. c #C2B491",
"c. c #C8BA99",
"v. c #D0BF9B",
"b. c #E4A295",
"n. c #E6AC9E",
"m. c #E9A99B",
"M. c #C8B8AC",
"N. c #D3BBAB",
"B. c #C2BFBA",
"V. c #C7B5B5",
"C. c #EEBFAF",
"Z. c #D5C39B",
"A. c #CDC1AB",
"S. c #DDCCA4",
"D. c #D9C7A1",
"F. c #CCC6B7",
"G. c #D5C6B4",
"H. c #DAD2BF",
"J. c #E1CFA7",
"K. c #E1CFA8",
"L. c #E5D2AA",
"P. c #EAD7AE",
"I. c #EBD8AE",
"U. c #EBC1B1",
"Y. c #EECBBB",
"T. c #F1CEBD",
"R. c #EEDBB1",
"E. c #F1DEB3",
"W. c #F0D1BF",
"Q. c #F4E1B6",
"!. c #F9E5BA",
"~. c #D4C7C6",
"^. c #D8D3C3",
"/. c #DFDBDA",
"(. c #DAD4D3",
"). c #CDC6C6",
"_. c #E3D9C7",
"`. c #F1D2C1",
"'. c #F5DECB",
"]. c #E2DCDC",
"[. c #E5E1CE",
"{. c #F6E0CE",
"}. c #E1E1DF",
"|. c #FBE9D6",
" X c #F4ECDB",
".X c #FAEEDA",
"XX c #F3E6D3",
"oX c #FCF2DE",
"OX c #E6E2E2",
"+X c #ECE5E5",
"@X c #EEEBEA",
"#X c #E9E8E6",
"$X c #F2EDEC",
"%X c #FEF6E2",
"&X c #FFFAE5",
"*X c #FFFEEA",
"=X c #F4F2EB",
"-X c #F6F5F4",
";X c #FAF5F5",
":X c #FFFFFF",
">X c #FAF8F5",
/* pixels */
"                                                                                                                                ",
"                                                                                                                                ",
"                                                                                                                                ",
"                                                                                                                                ",
"                                                                                                                                ",
"                                                                                                                                ",
"                                                                                                                                ",
"                                                  -X:X:X:X:X:X:X:X:X:X:X:X                                                      ",
"                                          :X:X:X:Xy.; R R R R R R R R R 4 ].:X:X:X                                              ",
"                                    :X:X:X).y.y.i.' f f f f f f f f f f f 4.i.y.r.OX:X:X:X                                      ",
"                                  ].-X+X$X' t y y n I P P L L L L P L P I s t u >.~.$X+X$X@X                                    ",
"                              :X:Xt.@ - - b I I L L L L L L L L L L L L L L B ..|.w.@ - # (.:X-X                                ",
"                        :X:X/.% = G. XXX.Xh.m L L L L L L L L S L L L L L L L L ] T.%X XoXw.= ) :X:X:X                          ",
"                      :Xi.u.M.G.M.XX&X%X&Xj.m L L L L L L L L L L M m m m V L J M 1.m.b.m.o.s v t.y.).:X                        ",
"                    -X+Xj $ f.*X&X%XoXoX*Xj.m L L L L L L L L L m <.b.j.b.{ m L L m m m m V I H i t 4.OX                        ",
"                  :X+X# G M h..XoXoXoXoXoXh.m L L L L L L L L L ] `.*X&X*Xn.F J L L L L L L L L L I f k :X                      ",
"                :Xy.j S J H J +..X&X*X.X+.J H L L L L L L L B { '.oXoXoXoX%XU.m S L L L L L L L L I V g Y ].:X                  ",
"                :Xi.t I L L V H h.j.j.h.S V L L L L L L J L N ...X%XoXoXoX*XY.m S L L L L L L L L m <.U.o =X:X                  ",
"                ].4.f L L L L H m m m m S L L L L L L L L L N ...X%XoXoXoX*XY.M L L L L L L L L F O.Y.&Xw.~.OX                  ",
"              :X4 f I L L L L L L L L L L L L L L L L L L S B } '.oXoXoXoXoXU.m J L J L L L L J m Y.*XoX*X` 7.:X                ",
"              :X5 g P L L L L L L L L L L L L L L L L L L L L L ] `.*X&X*Xn.G S L L L L L L L J m Y.&XoX&X` r.:X                ",
"            ].7.E D J L L L L L L J L L L L L L L L L L L L L S m +.b.j.b.} m L L L L L L L L H m T.*XoX%X_.M.y.;X              ",
"          :X;Xo G L L L L J L L L L L L L L L L L L L L L L L L L m m m m V L L L J L L L L L J B b.{.&X%X*XG.@ :X              ",
"          :X@X# S L L L L L L L L L L L L L L L L L L L L L L L L L L L L L L L L L L L L L L L L m d..X|..XN.T :X              ",
"          :X@X# S L L L L L L L L L L L L L L L L L L L L L L L L L L L L L L L J L L L L L L L L H ] ..X.X.b R :X              ",
"          :X+X# S L L L L L L L L L L J L L L L L m m m m V L L L L L L L L L L L L L L L L L L L L G N N B f R :X              ",
"          :X@X# S V N N N G L L L L L L L L L L m <.b.j.b.} m L L L L L L L L L L L L L L L L L L L L L L L f R :X              ",
"          :X+X# G { ......] S L L L L L L L H K ] `.*X&X*Xn.G H L L L L J L L L L L L L L S H J H L L L L P f R :X              ",
"          :X+X# n U..X|..Xd.m L L L L L L L B { '.oX%XoXoXoXU.m J L L L L L S L L L L L L N M m m F L L L P f R :X              ",
"          :X-Xo z.{.&X%X&X{.b.B L S L L L L N } .X%XoXoXoX*XY.m S L L L L L L L L L L S m b.T.Y.W.O.m L L K i ; :X              ",
"            ].t.w.^. X%X%X*X`.m J L L L L L N ..|.%XoXoXoX*XY.m J L L L L L L L L L G ] d.XX*X&X*XT.O.Z S a _ y.-X              ",
"              :XY 5._..X.X&XY.m J L L L L L B { '.oXoXoXoXoXU.m J L L L L L L L L L N } .X&XoXoXoX*XY.n c # V.:X                ",
"              :X; 6.^.^.%X*X`.M H L L L L L L L ] `.*X%X*Xn.G L L L L L L L L L L L N | |.&X%X%X%X[.z.s x @ y.:X                ",
"                OXw.>.^._.N.@.h v v A L P L L J M <.b.j.b.| M L L L L L L P L L L L V { _._.^._._.^.z.a # ~.+X                  ",
"                :X~.w.6.w.E i z z l x S K A A A K n g g n C A A A A A A A A K A A A h  .6.M.F.F.G.M.>.i t.@X                    ",
"                  :X#X= i d l z c z z z l z l l z z z l l z l z l l l l z z z z l l z l a f.G.G.F.' u ) :X                      ",
"                      :XY O t v x x x x x x x z c z x x x x x x x z x x c z x x x x x x c E E E * + t.:X                        ",
"                        ].>XV.@ # t p t t t t t t t t t t t t t t t t t t t t t t $ t t p $ @ y ].>XOX                          ",
"                        :X:XOXy.u._ < ! Q Q ! Q ! ! Q Q ! ! ! ( W W Q ! ! ! Q Q Q W W W < 3.u.i.:X:X                            ",
"                              :X:Xi.~ c.x.q.x.q.x.q.q.x.k.x.0.0.M.x.q.q.x.q.q.x.q.c.c.0.6 (.:X:X                                ",
"                                :Xa.~ 0.0.0.0.0.0.0.0.0.0.q.&.5 &XH.,.0.0.0.0.0.,. X X;.6 @X:X                                  ",
"                                :Xa.&.L.J.S.S.S.S.S.S.S.S.L.9.. 3.A.J.S.S.S.S.J.J.s.s.Z.q @X:X                                  ",
"                                :Xa.-.Q.E.Q.Q.E.E.E.E.E.Q.!.x.. . q.!.E.Q.R.Q.Q.!.e 6 E.~ @X:X                                  ",
"                                :Xa.-.E.E.P.I.I.R.R.R.R.R.Q.c.X X c.Q.R.R.R.I.R.Q.%.*.R.q @X:X                                  ",
"                                :Xa.-.Q.E.9.;.E.R.E.E.R.R.R.I.J.L.I.R.R.R.R.R.I.R.L.I.L.q @X:X                                  ",
"                                :Xa.-.Q.Q.*.:.!.!.x.q.E.R.R.R.Q.Q.R.R.R.R.R.R.R.R.Q.Q.L.q @X:X                                  ",
"                                :Xa.-.Q.R.0.:.v.Z.*.8.Q.R.R.E.R.I.R.R.R.R.R.R.R.R.R.Q.L.q @X:X                                  ",
"                                :Xi.-.Q.R.D.5.7 7 ;.Z.E.R.R.I.R.R.R.R.R.R.R.R.R.R.I.E.L.q @X:X                                  ",
"                                :Xa.#.Q.R.R.D.8.9.D.R.R.R.R.R.R.R.R.R.R.R.R.R.R.R.R.Q.I.2 -X:X                                  ",
"                                  OX^.9.P.E.R.S.S.P.R.R.R.R.R.R.R.R.R.R.R.R.R.R.R.!.S.9.}.@X                                    ",
"                                  :X>X, P.E.E.E.E.R.R.R.R.R.E.E.R.E.R.E.R.R.R.R.J.S.:.r :X                                      ",
"                                  :X}.%.S.R.E.R.R.R.R.R.R.I.I.I.P.P.P.P.P.P.R.L.0.( 7 3.>X                                      ",
"                                      :X*.v.Q.I.R.R.R.R.E.D.k.x.c.x.x.l.c.x.c.q.$.1 p.>X                                        ",
"                                      :X8 l.!.Q.E.E.E.R.D.:.6 ~ ~ ( *.%.%.%.%.%.9 & F.:X                                        ",
"                                      >Xp.M.Z.S.K.K.L.D.:.u.B.a.B.=.1 7 8 8 8 8 1 e.(.:X                                        ",
"                                        :Xp.( 0.9.9.9.9.( /.:X:X:XB.0 0 9 9 9 w ( #X:X                                          ",
"                                          :X@X> e 6 1 $.:X        :X@X: 1 e , ( :X                                              ",
"                                            =X;X=X$X-X}.            =X>X-X$X-X}.                                                ",
"                                              :X:X:X:X:X              :X:X:X:X:X                                                ",
"                                                                                                                                ",
"                                                                                                                                ",
"                                                                                                                                ",
"                                                                                                                                ",
"                                                                                                                                "
};
