/* XPM */
static char *d461d076970c401989f6f3296b9503612jbEpJ32AdEaNn4x[] = {
/* columns rows colors chars-per-pixel */
"66 64 196 2 ",
"   c None",
".  c #01023D",
"X  c #09063B",
"o  c #06123F",
"O  c #0B153D",
"+  c #051A3E",
"@  c #0C1A3E",
"#  c #131D3A",
"$  c #13243D",
"%  c #162B3E",
"&  c #182E3E",
"*  c #1B343E",
"=  c #1E3A3E",
"-  c #203E3E",
";  c #23433F",
":  c #234A3F",
">  c #2A4D3D",
",  c #2D533E",
"<  c #31553F",
"1  c #335C3E",
"2  c #39673F",
"3  c #3C6B3F",
"4  c #37623E",
"5  c #41743F",
"6  c #142C40",
"7  c #112641",
"8  c #003941",
"9  c #173141",
"0  c #1A3540",
"q  c #1E3C41",
"w  c #123F40",
"e  c #203F42",
"r  c #004446",
"t  c #014C45",
"y  c #0E4E46",
"u  c #1F4142",
"i  c #164745",
"p  c #015544",
"a  c #0A5645",
"s  c #015B43",
"d  c #0B5C45",
"f  c #125C45",
"g  c #195846",
"h  c #214343",
"j  c #254B45",
"k  c #284F41",
"l  c #234F48",
"z  c #265146",
"x  c #2A5444",
"c  c #255D46",
"v  c #2D5C46",
"b  c #275348",
"n  c #285649",
"m  c #2A5949",
"M  c #325541",
"N  c #305E44",
"B  c #315E48",
"V  c #096C42",
"C  c #1C6344",
"Z  c #1A6944",
"A  c #1B7042",
"S  c #236145",
"D  c #2C6346",
"F  c #246B44",
"G  c #2C6A45",
"H  c #2E6148",
"J  c #336446",
"K  c #346A46",
"L  c #3A6D46",
"P  c #336548",
"I  c #356948",
"U  c #3A6B48",
"Y  c #2C7444",
"T  c #2B7E42",
"R  c #347445",
"E  c #3D7346",
"W  c #357A44",
"Q  c #3C7C45",
"!  c #3D7348",
"~  c #42684A",
"^  c #417444",
"/  c #447C45",
"(  c #487F42",
")  c #447349",
"_  c #4A7349",
"`  c #417848",
"'  c #4D7C49",
"]  c #54744C",
"[  c #537B4A",
"{  c #597B4C",
"}  c #00823C",
"|  c #25883E",
" . c #2E8041",
".. c #3E8244",
"X. c #358B40",
"o. c #3C8E41",
"O. c #458245",
"+. c #4A8546",
"@. c #438C43",
"#. c #4D8B45",
"$. c #4D8048",
"%. c #498548",
"&. c #518D45",
"*. c #558449",
"=. c #5B844B",
"-. c #5D8B4A",
";. c #449142",
":. c #4C9443",
">. c #4D9A45",
",. c #539445",
"<. c #559945",
"1. c #5B9C45",
"2. c #5E9648",
"3. c #599F48",
"4. c #64864E",
"5. c #648D4C",
"6. c #6C8F4E",
"7. c #629E47",
"8. c #6C924E",
"9. c #649D49",
"0. c #6D9C4C",
"q. c #739A4F",
"w. c #75994F",
"e. c #7A9D50",
"r. c #779A50",
"t. c #5DA245",
"y. c #5AA94C",
"u. c #62A446",
"i. c #61A847",
"p. c #69A947",
"a. c #65A149",
"s. c #6CA44A",
"d. c #6EAA4B",
"f. c #62AE4F",
"g. c #72A64B",
"h. c #79A24F",
"j. c #74AA4B",
"k. c #7CAD4D",
"l. c #7DB04E",
"z. c #73B049",
"x. c #7DA451",
"c. c #77A050",
"v. c #6CB451",
"b. c #74B551",
"n. c #7AB450",
"m. c #75B953",
"M. c #7EBA53",
"N. c #80AE4F",
"B. c #82B14F",
"V. c #83A652",
"C. c #85AB52",
"Z. c #8BAD54",
"A. c #85B350",
"S. c #8BB552",
"D. c #84BA53",
"F. c #8DBA52",
"G. c #93B555",
"H. c #93BD54",
"J. c #98BD56",
"K. c #9EBE58",
"L. c #8DC053",
"P. c #95C155",
"I. c #9CC356",
"U. c #9DC558",
"Y. c #96CF5C",
"T. c #9ACA5A",
"R. c #93C658",
"E. c #9FD25D",
"W. c #A0C657",
"Q. c #A1C957",
"!. c #A1C658",
"~. c #A2C958",
"^. c #A4C959",
"/. c #A6CA59",
"(. c #A7CB5A",
"). c #A5CA59",
"_. c #A6CF5C",
"`. c #A5CA59",
"'. c #A8CB5A",
"]. c #A9CC5A",
"[. c #AACD5A",
"{. c #AACE5A",
"}. c #ADCF5B",
"|. c #AACD5A",
" X c #A6D25D",
".X c #AED15B",
"XX c #ADD15C",
"oX c #ADD25C",
"OX c #B1D45D",
"+X c #B3D95E",
"@X c #B9DB5F",
"#X c #ACD960",
"$X c #B4DB61",
"%X c #B8DF62",
"&X c #BAE364",
"*X c #BFE966",
/* pixels */
"    1.y.    v.    s.;.  b.a.    v.    d.s.  ;.9.    m.    y.k.  a.s.  o.v.    m.    :.s.  1.z.    v.    7.^.I.| s.    v.  a.;.      ",
"^.%XH.s. XOXJ.p. X^.d.H.'.^._.j.H.oXD.W.XXR.j.I.F.oX^.XXk.B.oXF.P.XX~.d.I.D.XX^.XXD.k.XXR.J.].].j.J.F._.].XXF.d.^. Xs.J.oX~.d.P.%X~.",
"  H.^.^.W.W./.OX^.!.].'.!.!.^.XX/.I.].].W.^.].W.}.U.~.^.XX/.Q.].].W.^.].!.[.!.!./.XX].I.'.].W.Q.].~._.^.W.!.'.}.!.^.XX^.!.!.'.].H.  ",
"  T.^.!.W.'.H.1.I.'.H.B.^.^.a.A./.].j.j.^.!.^.W.k.~.].k.g./.].B.a.^.!.W.^.k.!.^.S.a.I.].H.7.I.^.U.'.N.P.^.].S.9.~.I.7.H.'.W.W.^.T.  ",
"^.].W.^.s.g.W.J.j.J.g.W.^.I.I.B.S.l.S.I.I.W.~.g.I.!.W.I.S.l.S.l.I.I.!.^.k.F.^.!.U.J.j.H.j.I.U.!.'.B.B.^.I.1.A.I.I.g.I.I.I.!.!.W.].~.",
"$XA.B.}.I.1.j.XXs.o.g.}.g.R K.J.@.,.~.J.:.B.].9. XA.F Z.^.:.;.P.!.<.g.}.a.!.P.W r.XX2.@.B.'.a.1.'.k.H.~.:.g.'.!.,.a.XX=.&.~.}.A.A.$X",
"S.s.XXF.'.I.| h.{ t 0.k.@.H $.e.r / A.1.#.;.k.] e.:./ K V.b G B.u.+.@.k.{ r.,.#.p x.~ f j.j.@.+.g.4.6.2.;.k.^.,.t { 8._ ^.Q.S.XXs.S.",
"  T.^.A.B.I.K P O.O.R ,.J / ,.C #.J #.O.i ) S / R J +.<.S +.K O.#.z I G E W J / 1.G O.^ E ,.v B R K O.v R ] s.G O.+.C 6.A.k.S.^.T.  ",
"^.}.^.'.S.[ K 1.t./ L L / 1.,.` t.,.^ P ,.&.L 1.t.E +.1.! t.<.( H #.,.E ,.u./ ^ t.! 1.3.+.J O.,./ +.u.#.L Q S &.( t.1.S T F.].Q.XX~.",
"  3.S.^.].N.Q 1.^ #.v / 1.<.L H O.t.L ,.1.+.P L t.+.+./ v ` t.^ #.1.,.J J <.,./ #.v L 1.+./ t.,.L J #.1.E t.) #.&.` t./ G.].~.S.t.  ",
":.B.'.W.I.XXS...B ,.&./ t.J P P v ( L 1.+.x J J E +.v J P B / L ,.,.v N P P #.v J I H E ^ #.<.P v P v +.! 1./ +.1.B p e.I.I.!.].B.:.",
"   XH.^.&.G.H.:.$.I / E L $ v P ; O = / H - v x q P = k J k $ # ^ J - b N * J ; ; J x % . 3 ! h ; J * v x I / z +./ / H W 1.^.J. X  ",
"  ;.I.XXO.Q j.,.1.; 6 h $ j = j 0 j q 9 k & b 0 z h q = k 0 h e % k h x q h m u = j 0 j j 7 j = x j * m h % q q q 1.t.:.Y 1. XI.;.  ",
"a.OXOXN.F.I.g...t.+.& j j z j q h q e h h b e h h q e j e h l j h j m h q h n j q q h h h h q h m j q z b j j & +.u.Q h.I.S.B.OXOXa.",
"  a.a.1.a.~.`.8.c < q h h j b h q j b q h n h h n j q h e h n h e n j q h q h h j n j q h x h h h h u h j u h q , c 8.!.^.a.1.7.a.  ",
"    P.^.s.:.1.t.3 & h h h e e e j n z = e h q j j j - q = = q ; q e 0 h q = q h b h = j j h h n j q h h h h u u & 3 t.1.:.s.^.P.    ",
"~.$X^.'.^.s.@.+.( $ h m j q h q h l = k N X x h ; $ x h : J & x h & v x = J = ; 9 ; J # v x * n z q z n b 0 u u $ O.+.@.s.^.].~.$X~.",
"  R.].S.!.XX0.G 5 / = j h e h j h e % I N h / #.H h E #.I I v E #.k I x v J x I +.E x j v I k X @ = h j j j h 0 / ( D 0.XX!.A.].P.  ",
"J.;.P.s.u.s.4.<.u.2 * e e h h m h $ x J P I E 1.+.! 1.1.I J m ,.t.#.J P P J ! ,.t.E #.+.H H %.&.( q q e h m j * 2 t.,.5.g.7.s.I.;.J.",
"$XB.k.].H.O.F t.< o j b h q h 0 j J J / +.v J E #./ t.! I 1.O.N ,.,.H I I v E t.O.P 1.1./ O.1.<.J = e h q h u h O 1 t.F O.P.'.k.B.$X",
"W.%Xk.k.XXW._ n I ; e b n h h h * x K 1.#.O.t.! t / / v <.1.O.m I #.v +.1.E E +.m g J 1.+.O.,.x % j q h h q q q h P n _ I.}.k.j.%X!.",
"   XP.s.B.F.h.R N x * j l h n l j $ J 1.^ ! 1.<.5.W R v 1./ p / L N v ) 1.1.m f W 6.c U / z ! O.E O h n z u j 0 x N W k.F.B.s.I.XX  ",
"  g.oX}.S.g.;.t.( # h e e e j e h x K E L ^ C S.J.2.P.2.R U S.g.Z ../ K W :._ S.p.I.N.R v / 1.1.1 u j j z j m j O +.t.;.j.S.}.oXg.  ",
"  #X].k.Q. Xh.O.u.+.% e e e e z u J P P 1.Q e.oXZ.8.@X5.P J.$X0.x.R...c.J.! =.@X0.Z.OXN.t &.1.U m x u h h u h & +.u...c.[.!.k.[.#X  ",
"!.XXA.,.7.].Z.d < x = j n h h b n & v <.t.R S.I.a c.      &XQ.  ~.^.  U.*X    S.y ,.I.U.N.Q P P x e b h h n h q , < d Z./.7.<.B.XX!.",
"  ;.F. X,.7.B.<./ . h h l h e e & u E t.o.3 s.j.'         W.    !.      !.        a.j.=.:.:.O.L ; 6 h q h b h h . / <.B.1.,.}.F.;.  ",
"  @X%XH.N.k.2.@.t.^ * h e e j 0 > <.1.O.l.l.F.OXOX                                OXOXF.k.k.+.t.1.> q j e h j 9 5 u.@.2.l.B.H.$X$X  ",
"9.Y.k.:.k.OX!.-.Q ^ 0 h j e j 9 1 O./ Z..XI.:.g.F.j.                            j.L.g.;.I.OXS.^ / 1 9 j e h h * ^ Q 4.W.OXB.:.k.Y.a.",
"    n.I.<.a.j.a.: @ h q h e e h * + +.k.g.:.A.H.o.                                | I.S.,.k.k.+.+ * h e h q q h @ : a.g.9.<.I.l.    ",
"/.'.~.].I.,.@.<.&.* h n h q e j @ 5 1.;.| B.{./.!._.                            /.W.}.}.B.| :.<.^ @ b z u h h q * &.<.@.,.I.].Q.^.^.",
"  oX^.J.^.~.2.H 4 J - b h h h 0 v 1 L E J..XJ.W.$XH.                            H.@XW.I..XF.L K 1 x h b u h h = J 4 D 2./.'.P.].oX  ",
"  3.~.a.j.H.w.O.i.( & = e n n 9 1 1.<.*.G.F.,.I.A.1.                            1.B.J.:.S.G.*.3.u.1 & e h m j & ( t.O.w.H.j.a.Q.3.  ",
"OXs.l.I.l.T R u.^ O j l h h h j 7 > 1.<.V s.F.I.:.$X                            $X:.I.F.s.s ,.<.> $ j j e j e e @ ^ i.R 3 l.U.l.a.$X",
"^. Xk.J.XXS.v ^ v = h n b e e h = : L D 4.].'.j.I.&X                            &XI.j.].{.5.G E h - l n j e e e = v ^ D D.oXP.z.[.^.",
"  ].A.<.J.U.h.f J N & j b h h 0 > P c [ I.I.g.1.XX^.                            ]. X2.g.I.W.[ c J k 0 b l e h * N U g h.~.J.<.B.}.  ",
"    oX].j.7.<.1.J O h e h e b b 7 - <.<.1.a.I.oXI.                                P.oXI.u.1.1.<.- 9 h e e j n j o J 1.:.7.j.].OX    ",
"  Y.}.H./.Q.9.,.i.5 & h e e j e , 1.1.&.F.OXH.].#Xs.                            s.#X^.H..XF.&.1.2., 0 h e e l 0 5 u.:.9.Q.^.H.}.Y.  ",
"^.OXH.@.g.XXC.d 5 ^ = h j j j 9 J 5 J ] XXF.@.g.].].                            ].XXj.;.H.XX[ G 5 J 9 l j j h 0 ^ ^ d C.XXg.;.H.XX^.",
"  a.k.I.,.k.S.@.J . e j n n b h % 0 ..s.I.;.S.P.j.j.                            k.p.H.S.@.J.a.O.- % h k n n j e . J @.S.k.,.I.k.a.  ",
"    +X/.g.1.2.<.1.< 0 h h l n j q > E ^ R A.[.P.>.          ;.  ,.      ,.    ;.  <.j./.S.W 2.t.5 9 m h e h h q < 1.<.2.1.g.^.$X    ",
"s. XP.1.F.OXG.' >.@.& j h j j h 6 ^ 1.,.Y H.I.d.s.  a.    f.B.  a.j.  X.b.    n.d.I.I.j.k.:.t.+.7 m l h q h j & +.,.O.G.OXF.1.H.#X9.",
"  } a.B.:.A.H.0.% # u q u q e e z o / t.<.g.k.Q.^.M.I.$XD.S.OXR.I.XX Xk.!.P.oX[.].~.].U.7.>.+.N h h h q h e q h $ % 0.H.A.,.B.a.}   ",
"].I.T.}.F.o.;.<.&.- h j h j l 9 k N x O.:.s././.!.XX^.^.XX'.W.].].Q.^.].Q.].^.H.H.^.B.'.I.s.O.J I ; h l h q u q w #.t.;.o.F.}.~.U.`.",
"  &X^.!.'.H.#.E J h h n j j n j = m I #.g./.W.j.^.A.H.l.s.W.^.B.a.^.^.I.^.g.'.B.k.}.,.j.XXk.<.&.- h l n e h h q ; 4 K #.H.].U.^.&X  ",
"  j.].s.F./.e.W 1.+.% h e h b j h ; ,.>.k.}.s.,.~.B.k.^.F.l.B.B.W.I.I.'.g.H.'.k.B.j.<.@.C.6...1./ O h h h n j & #.1.W e./.F.s.}.j.  ",
"^.:.S.S.a...( u.&.- - h h q q h # / <.Q 4.g...<.0.A.A V./.+.@.P.I.:.a.].s.I.H.;.! &.,.I R ! J J > = h e h z h q - &.u./ ..u.S.S.:.!.",
"$XI.k.^.].0.f ,.x % j m j u j j q ; m J Q / K +.#.G ` G h.j G j.t.O.@.g.] 8.#.#.x / m P <.1.+.v # b n j e q = h $ , ,.f 0.{./.k.U.$X",
"  &Xk.<.^.].8.r L x 9 j m h b m j # J &.t.,.J v ` v / 1.S :.L O.+.b U D / Q J / v / ,./ J ,.1.I j 0 b n q h e * v L r 8.].W.<.k.%X  ",
"    XXJ.s.s.a.,.1 q q u h e z z * x I t.#.m +.<.+.n #.1.E 1.1./ N ,.<.^ &.t.+.n O.1.1.E P J ,.I J ; = h e h n h q v ,.a.s.s.J. X    ",
"  j.].~.I.H.,.1.3., = h q h h * ; J J &.J P I ,.t.( +.Q v E t./ #.t.#.J P ,.<.z #.1.P v J P P * * - h h e h n q , 1.1.,.F.W./.}.k.  ",
"  $XI.<.S.XXV.F &.+.& h h u h h q % * x K J x J <.#.h P I v E U ,.#.v v P N #.j 3 L N # k J * q n n h e h h h & +.&.F V.XXS.<.I.$X  ",
"I.A.k.l.<.H.S.Y < . h j m h h m j e q = P * # v v 4 O > I ; $ # ^ J = x v * v j % % k e h - q h j j h e e n j h . M R S.P.<.k.k.A.U.",
"  i.!.XX7.W j.t.^ b * h j u e h u q q h j j h j * u j 9 j = h h 7 k h b = h m q h h * h = q e j h q h j j n j * x ^ 1.j.W 7.}.W.i.  ",
"  _.^.g.7.C.Y 2.,.> 0 j b h l q j n h h z m h q j m j j e h b h h j n j q h n j j h h z j e j n b q h z n j e q ; <.1.Y C.7.g./._.  ",
"<.1.s.a.7.}.C.a J I k 0 n e j e h n q h n u q h 0 h q h h e n h e b j q h q h e q h q n j q z j q h q q h h & x U J a N.{.7.a.s.t.<.",
"  F.}.U.7.H.OXS.I x - j 0 - 0 = = q ; q q = h * h q = = = - 0 h - e = h * ; q = h * = 0 h = e = h q = h 9 e k * , I G..XH.7.I.[.F.  ",
"  $XI.,.o.<.B.C.{ = v x - J u x J & v u * J ; k N * N j x P * x j % v x - J * v z ; J - k z & x v * J e k 6 k J w [ N.N.1.| 1.W.$X  ",
"  `.;.B.J.N.p t c R O.v v $.#.P I x +.+.x I v P J x / :.I P v ( &.x I v J J x E ,.! P J L ,.N P N J I x L &.L H U S t p N.J.B.@.`.  ",
"<.k.W.k.I.].e.S I ,.,.m O.t.,.v K P ,.1.O.v I H J Q <.1.P J H #.t.&.P I P P E <.1.E P v O.t.,.P P J P P ,.t./ %.L I H e.}.I.k.W.j.3.",
"  XX}.a.<.Q.J.;.U L &.n &.<.P / 1./ P <.&.v L ! n ( 1.L ! 1.+.v &.,.v I ! v E 1./ P ,.,.v +.1.P P L J P 1.+.b ,.,.L @.P.W.,.s.[.oX  ",
"k.oXs.o.,.s.k.V ^ I B v +.I U 1.<.L x ! O.m ,.1.L ` ` v <.1./ m P +.v +.t.E E O.b ,.1.$.v v +.P / t.+.I O.a R #.<._ ( k.p.,.| g.oXk.",
"s.j.a.S.7.:.,.C.d.d Q / y Y ! 2.D F +.J m J ` 1.<.i F I <.E f O.L x D ! <.1.m C G &.%.p O.E m v I &.t.J v C.z.K J 6.!.Q W 7.F.9.j.g.",
";.a.!.].7.1.I.OX-.C.L.T 8.P.,.g 4.P.u.C #.^ E Q @.4.I.7.G _ P.g.Z +.( E W #.' H.g.W J H.M.2 / +.! W :.^ S.+XC...Q [ .XJ.*.7..X^.a.;.",
"  ].].k.:.s.XX0.V.@XQ.  +X/.L =./.'.=.J.F.A S.J.p q.OX*.U I.XX5.S.U.W r.^.^ [ OXr.p G.oXc.s./.:.=.^.-.D +XU.  <.Q.N.q..Xg.:.k.'._.  "
};
